<?xml version="1.0" encoding="UTF-8"?><svg xmlns="http://www.w3.org/2000/svg" width="3.48in" height="5in" viewBox="0 0 250.61 360"><g id="Layer_1"><path d="M112.65,31.38c3.64,0,7.28,0,10.92,0,4.59,.76,9.17,1.55,13.76,2.27,12.45,1.97,22.63,7.92,30.52,17.67,1.44,1.77,3.91,4.19,2.12,6.54-2.32,3.04-5.47,5.48-8.47,7.92-.76,.62-2.32,.3-3.51,.36-2.35,.11-4.71,.19-7.07,.28-3.18,.13-6.36,.35-9.55,.36-3.65,.01-7.3-.25-10.95-.18-.79,.02-1.57,.94-2.35,1.45,.8,.32,1.59,.88,2.41,.92,5.12,.27,10.25,.43,15.37,.6,.86,.03,1.72-.07,2.58-.07,3.55,0,7.09,0,10.81,0-3.63,4.81-7.24,9.55-10.81,14.32-3.42,4.58-7.86,8.75-9.94,13.88-3.8,9.36-11.5,13.65-19.61,17.63-4.99,2.45-10.4,4.06-15.64,5.99-1.73,.64-3.53,1.1-5.29,1.65l.21,.93c5.44-.33,10.7-1.84,15.75-3.81,5.12-1.99,9.99-4.63,14.99-7-.16,.42-.3,.98-.56,1.47-3.38,6.47-6.55,13.06-10.24,19.34-2.27,3.87-5.15,7.45-8.11,10.84-3.44,3.94-7.24,7.58-10.94,11.29-5.01,5.02-10.02,10.06-15.16,14.95-2.82,2.68-5.89,5.1-8.9,7.57-3,2.47-6.06,4.86-9.1,7.28-.86,.69-1.75,1.34-2.63,2.01,.13,.33,.26,.65,.39,.98,1.08-.3,2.38-.31,3.19-.95,4.9-3.84,9.85-7.64,14.49-11.79,8.65-7.73,17.1-15.69,25.63-23.56,1.62-1.5,3.2-3.04,4.7-4.47-1.78,4.71-3.7,9.51-5.42,14.38-1.99,5.64-3.85,11.33-5.7,17.02-.52,1.61-.47,3.49-1.28,4.91-4.21,7.41-8.65,14.7-12.95,22.06-1.52,2.6-2.87,5.3-4.32,7.93-.31,.56-.77,1.04-1.15,1.55-2.17,2.95-4.42,5.85-6.49,8.87-2.21,3.21-4,6.74-6.44,9.75-2.85,3.53-6.21,6.63-9.29,9.97-.37,.4-.32,1.17-.47,1.77,.28,.12,.55,.24,.83,.36,15.45-14.69,26.88-32.35,37.04-51.03,.05,1.54-.16,2.93-.47,4.3-1.18,5.1-2.61,10.14-3.53,15.29-1.22,6.85-2.13,13.77-3.02,20.68-1.02,7.89-2.08,15.79-2.71,23.72-.52,6.54-.51,13.13-.58,19.7-.03,2.36,.5,4.72,.56,7.09,.11,4.27-.21,8.56,.15,12.81,.31,3.64,1.32,7.22,2.02,10.82,.35-.01,.69-.02,1.04-.03,.16-1.71,.46-3.42,.45-5.12-.09-9.04-.39-18.08-.35-27.12,.02-5.12,.56-10.23,.85-15.35,.61-11.04,1.04-22.1,3.22-32.98,.02-.09,.01-.19,.03-.29,.96-6.35,1.89-12.71,2.89-19.06,.24-1.55,.71-3.06,1.23-5.22,4.59,10.99,8.2,21.7,13.43,31.56,5.28,9.95,12.15,19.06,18.33,28.53,.38-.24,.75-.48,1.13-.72-.85-1.39-1.72-2.76-2.53-4.17-2.48-4.34-4.95-8.69-7.41-13.04-2.9-5.13-6.05-10.15-8.63-15.44-2.98-6.15-5.36-12.58-8.18-18.81-2.73-6.02-4.95-12.04-2.73-18.74,.81-2.45,1.97-4.83,2.43-7.35,1.48-8.12,4.32-15.75,7.57-23.28,.92-2.14,1.61-4.38,2.4-6.57,3.36,12.11,9.79,22.37,16.42,32.56,7.1,10.9,20.47,25.59,23.82,27.23-2.89-3.68-5.8-7.27-8.59-10.97-2.11-2.8-4.04-5.72-6.05-8.59-4.22-5.99-9.04-11.67-12.53-18.06-4.13-7.56-7.2-15.71-10.51-23.7-.65-1.56-.61-3.6-.3-5.31,.51-2.84,4.06-4.65,2.94-8.15-.02-.05,.13-.13,.18-.21,2.34-4.29,4.64-8.61,7.02-12.88,3.73-6.7,7.51-13.37,11.29-20.04,.34-.59,.79-1.12,1.35-1.91,4.12,28.1,27.18,61.2,37.12,70.25-2.04-3.26-4.38-6.32-6.33-9.63-4.51-7.66-8.98-15.35-13.18-23.18-3.34-6.23-6.2-12.72-9.39-19.04-3-5.95-5.05-12.19-5.56-18.83-.14-1.86-.02-4.15,.94-5.63,3.32-5.1,7.1-9.9,10.61-14.89,.82-1.17,1.14-2.69,1.87-3.95,.7-1.21,1.57-2.35,2.49-3.42,.58-.67,1.47-1.08,2.09-1.73,2.56-2.64,5.06-5.33,7.22-7.6,4.41,7.47,8.2,15.45,13.43,22.34,5.18,6.83,10.31,14.07,18.17,18.43-.15-.92-.61-1.56-1.14-2.14-4.27-4.7-8.61-9.34-12.79-14.13-1.36-1.56-2.05-3.73-3.45-5.24-5.31-5.75-8.39-12.65-10.71-19.97-.95-2.99,1.09-8.32,3.75-9.72,.24-.12,.53-.14,.79-.23,1.24-.41,2.48-.81,3.72-1.23,1.39-.47,2.79-1.45,4.14-1.37,6.09,.37,11.4,2.57,16.5,6.16,8.49,5.98,17.05,11.74,24.09,19.54,6.9,7.64,12.1,16.29,16.16,25.66,1.4,3.23,1.83,6.92,3.4,10.04,2.23,4.45,3.77,9.03,4.46,13.92,.28,1.97,.62,3.95,.65,5.93,.08,6.14,1.32,12.63-.26,18.34-3.3,11.92-15.12,17.11-26.55,9.5-3.26-2.17-6.08-5-9.54-7.89,.37,1.05,.48,1.6,.73,2.06,2.31,4.15,4.79,8.2,6.95,12.43,5.09,9.94,9.17,20.21,8.61,31.68-.14,2.91-.35,5.9-1.08,8.7-1.6,6.08-5.74,10.17-11.21,13.06-5.21,2.76-10.42,3.53-15.81,.53-.68-.38-1.51-.5-2.56-.84,.12,1.13,.09,1.9,.28,2.6,2.65,9.86,3.71,19.9,3.36,30.08-.15,4.44-.56,8.8-2.81,12.96-3.83,7.07-15.82,13.54-24.42,5.01-5.06-5.02-9.54-10.62-14.26-15.97-1.02-1.15-1.96-2.37-2.93-3.56-.24,.12-.47,.25-.71,.37,.18,.87,.35,1.75,.54,2.62,1.07,4.81,2.25,9.61,3.18,14.45,.79,4.09,1.25,8.24,1.93,12.35,1.1,6.62-.27,12.67-4.08,18.17-2.47,3.57-5.74,5.56-10.24,5.88-6.32,.45-10.92-2.39-14.59-7-4.95-6.22-9.65-12.64-14.86-19.5,0,5.02,.31,9.77-.07,14.48-.73,9.02-1.47,18.07-2.97,26.98-.95,5.64-3.58,10.98-4.94,16.59-1.23,5.09-3.87,9.15-7,13.22-8.25,10.72-21.6,4.17-25.3-4.39-3.15-7.31-5.39-14.84-6.81-22.64-.79-4.31-1.56-8.62-2.24-12.95-.49-3.07-1.09-6.15-1.16-9.24-.18-7.79-.09-15.59-.11-23.39,0-4.41,0-8.82,0-12.73-3.24,3.31-6.7,7.11-10.44,10.59-7.17,6.68-14.15,13.84-25.01,13.95-.84,0-1.71,.19-2.52,.05-7.55-1.3-12.5-5.85-14.12-13.12-1.14-5.12-1.39-10.58-1.15-15.84,.32-7,2.17-13.71,6.4-19.57,1.78-2.46,3.29-5.11,4.93-7.68-5.53,1.22-10.21-.66-14.69-2.62-5.24-2.29-9.65-6.02-10.05-12.09-.49-7.5,1.14-14.8,5.06-21.34,3.18-5.31,6.78-10.36,9.94-15.67,4.11-6.93,9.54-12.78,14.81-18.77,.99-1.12,2.39-1.87,3.62-2.78,2.7-1.99,5.4-3.97,8.31-6.11-.63-.21-.88-.34-1.14-.38-10.81-1.28-19.15-6.02-23.25-16.65-1.97-5.1-2.24-10.29,1.31-14.68,3.65-4.51,7.41-9.25,12.05-12.59,7.27-5.23,15.23-9.56,23.1-13.9,3.91-2.16,8.28-3.49,12.04-5.04-4.38-2.02-8.93-3.85-13.2-6.19-2.35-1.29-4.78-3.09-6.21-5.28-1.99-3.06-3.64-6.58-4.44-10.12-1.45-6.47-1.06-12.91,4.53-17.62,7.96-6.71,16.17-13.03,26.11-16.72,12.03-4.46,24.49-6.39,37.23-6.97,.9-.04,1.79-.36,2.69-.55Z"/></g><g id="Layer_2"><path d="M212.03,27.14c-1.13,.18-1.73,1-2.37,1.85-.98,1.3-1.87,2.54-3.83,2.76-1.68,.18-2.46,2.1-3.56,3.23-2.41,2.48-5.03,4.58-7.86,6.55-2.29,1.6-4.23,3.73-6.26,5.69-.54,.52-1.06,.96-1.77,1.18-.39-.16,.21-.06-.21-.08-.04,0-.06,.02-.06,.06,.01,.14,.05,.21,.09,.21-1.36,.76-3,1.16-3.14,3.2-.05,.77-1.05,.81-1.62,1.18-.66,.42-1.89,.8-.81,2,.15,.84-.59,1.1-1.01,1.57-.7,.62-1.43,1.21-2.29,1.62-.24,.11-.49,.18-.75,.23-.49,.05-.99,0-1.47,.14-.21,.12-.42,.24-.62,.37-.2,.14-.4,.28-.6,.41-.44,.31-.53,.82-.7,1.28-1.84,2.21-3.06,4.53-1.46,7.41,.38,1.38,1.05,2.65,1.52,3.99,.59,1.57,1.19,3.13,2.09,4.56,.47,.85,.86,1.74,1.32,2.59,.31,.62,.61,1.24,.92,1.86,.95,2.05,2.7,3.5,3.94,5.33,.28,.3,.55,.6,.83,.91,1.07,1.08,1.72,2.42,2.39,3.75,.25,.48,.53,.94,.87,1.36,.74,.85,1.33,1.78,1.86,2.77,.39,.73,1.08,1.08,1.8,1.39,1.7,1.07,2.34,3.01,3.64,4.41,.67,.87,1.21,1.83,1.99,2.6,.94,1.07,2.02,1.96,3.29,2.62,1.05,.84,2.35,1.88,1.3,3.21-.95,1.22-2.18,.1-3.2-.51-2.91-2.55-5.67-5.27-8.31-8.1-.3-.29-.61-.58-.93-.85-.22-.19-.4-.41-.55-.66-.5-1.69-1.7-2.9-2.85-4.15-.26-.31-.52-.61-.82-.89-.32-.24-.64-.48-.96-.71-1.29-1.07-2.04-2.53-2.88-3.93-.55-1.07-1.3-2.03-1.85-3.11-.31-.59-.58-1.2-.91-1.77-.69-1.13-1.43-2.23-2.22-3.29-.8-.91-1.48-1.9-2-2.99-.29-.46-.6-.91-.9-1.37-1.3-1.75-2-3.77-2.57-5.85-.22-.8-.05-2.28-1.73-1.68-.57,.53-.93,1.22-1.42,1.8-.25,.31-.52,.59-.79,.88-.26,.31-.51,.62-.75,.95-1.11,1.61-2.94,2.61-3.78,4.45-1.42,.62-3.23,.66-3.74,2.59-.08,.38-.17,.75-.27,1.12-.08,.24-.2,.45-.36,.64-.6,.31,.21,.47,.08,.73,.02,.26-.03,.51-.14,.75-.34,.57-.79,1.05-1.17,1.6-1.18,1.52-2.43,2.99-3.5,4.6-1.24,2.14-2.83,4.04-4.32,6-.14,.23-.31,.45-.48,.66-.08,.11-.17,.21-.25,.32-.5,.62-.9,1.31-1.39,1.93-.24,.32-.48,.64-.7,.98-.97,1.84-1.62,3.75-1.18,5.87,.04,.28,.02,.56-.03,.84,.14,.29-.79,.48-.06,.81,.2,.21,.36,.45,.49,.71,.84,3.02,1.23,6.15,2.32,9.11,.84,2.54,2.12,4.9,3.03,7.41,.22,.53,.44,1.07,.64,1.61,.32,1.83,1.17,3.4,2.41,4.77,.72,1.21,1.25,2.51,1.94,3.73,.14,.24,.26,.5,.37,.76,.55,1.44,1.03,2.91,1.86,4.22,1.26,2.23,2.86,4.29,3.57,6.8,.2,.65,.4,1.3,.72,1.91,.32,.59,.75,1.12,1.11,1.69,.77,1.76,1.91,3.29,3.15,4.74,1.05,1.77,1.58,3.82,2.86,5.47,.29,.46,.54,.93,.85,1.37,.24,.32,.47,.65,.67,1,.39,.7,.71,1.43,1.19,2.08,.25,.32,.48,.65,.7,.99,.79,1.28,1.86,2.38,2.53,3.73,.83,1.49,1.87,2.84,2.94,4.16,.51,.98,1.45,1.79,1.24,3.06-.14,.26-.35,.44-.62,.55-.14-.01-.28-.03-.43-.04-.27-.11-.51-.26-.74-.43-.34-.27-.64-.57-.94-.88-1.37-1.61-2.93-3.05-4.2-4.74-1.46-1.53-2.16-3.62-3.73-5.07-.82-1.14-1.7-2.24-2.51-3.39-.5-1.26-.95-2.55-2.16-3.36-.42-.34-.76-.75-1.04-1.21-.21-.32-.38-.67-.56-1.01-.28-.55-.51-1.12-.81-1.66-.2-.31-.42-.62-.66-.9-.44-.49-.91-.96-1.28-1.51-1.51-2.09-2.33-4.56-3.67-6.74-.32-.62-.72-1.17-1.12-1.74-.16-.23-.29-.47-.42-.72-.91-1.87-1.82-3.73-2.79-5.56-.32-.63-.63-1.27-.95-1.89-1.14-2.03-1.85-4.25-2.88-6.33-.84-1.54-1.4-3.2-1.88-4.88-.21-.53-.44-1.06-.63-1.61-.26-1.57-1.24-2.88-1.56-4.43-.11-.42-.24-.82-.37-1.23-.26-.83-.56-1.66-.73-2.51-.2-1.14-.07-2.33-.47-3.44-.14-.41-.26-.83-.37-1.25-.26-.98-.61-1.96-.35-3.12-1.24,1.71-2,3.51-2.51,5.44-2.78,1.83-3.17,5.32-5.26,7.63-.81,1.01-1.21,2.21-1.6,3.42-1.05,2.36-2.63,4.47-3.36,6.98-.94,1.71-1.91,3.41-2.53,5.28-.73,1.31-1.77,2.41-2.58,3.66-.22,.33-.45,.66-.67,.99-.69,.97-.21,2.09-.39,3.12-.07,.44-.22,.84-.46,1.21-3.02,3.12-3.19,6.68-1.62,10.5,.3,.51,.58,1.02,.8,1.57,.47,1.35,.95,2.71,1.28,4.1,.12,.53,.23,1.07,.44,1.57,.12,.24,.23,.5,.33,.75,.42,1.17,.98,2.27,1.62,3.34,1.61,2.94,2.73,6.1,4.32,9.04,1.32,2.89,3.65,5.16,5.03,8.01,.55,.83,1.02,1.72,1.54,2.57,2.35,3.21,4.61,6.47,7.17,9.52,1.1,1.45,1.75,3.17,2.8,4.65,.29,.28,.57,.57,.85,.86,.28,.28,.54,.59,.76,.92,.29,.44,.58,.89,.94,1.29,.99,.99,1.81,2.09,2.43,3.34,.75,1.33,1.94,2.27,2.98,3.34,1.15,1.25,2.05,2.71,3.22,3.94,.43,.66,.71,1.33,.22,2.09-2.67,.56-3.23-2.11-4.85-3.16-.74-1.14-1.71-2.09-2.64-3.07-.18-.19-.33-.4-.48-.61-.28-.41-.61-.79-1-1.11-.68-.56-1.23-1.27-1.93-1.81-.3-.24-.56-.51-.81-.81-.39-.5-.84-.94-1.26-1.41-.51-.73-.86-1.57-1.6-2.12-1.44-1.11-2.3-2.72-3.49-4.05-1.07-1.66-2.55-3.01-3.57-4.71-.16-.22-.31-.46-.44-.7-.34-.59-.75-1.14-1.15-1.7-1.23-1.67-2.43-3.36-3.27-5.27-.6-1.24-1.16-2.5-2.07-3.55-.27-.3-.54-.6-.82-.9-.46-.49-.93-.98-1.32-1.54-.65-1.03-1.34-2.03-1.91-3.11-.43-.86-.84-1.72-1.34-2.54-1.11-1.63-1.73-3.47-2.33-5.32-.24-.72-.43-1.47-.65-2.2-.13-.45-.22-.91-.41-1.33-.12-.2-.24-.39-.36-.59-.15-.19-.28-.39-.4-.59-.12-.22-.21-.45-.29-.69-.13-.37-.24-.75-.36-1.12-1.27-2.05-1.77-4.29-1.65-6.26,.31,2.08-1.2,4.07-1.87,6.28-1.08,2.86-1.54,5.99-3.6,8.43-.2,.37-.4,.74-.55,1.13-.07,.27-.15,.54-.22,.81-.85,3.15-1.5,6.35-2.46,9.47-.16,.67-.4,1.33-.48,2.02-.02,.28-.06,.55-.1,.82-.06,.41-.16,.81-.32,1.2-.52,1.1-1.5,1.94-1.79,3.17-.29,.8-.3,1.64-.33,2.48-.01,.44-.06,.88-.14,1.32-1.56,4.6-.55,9.07,.71,13.51,.14,.41,.32,.8,.52,1.18,.82,1.68,1.49,3.43,2.34,5.1,.16,.4,.27,.82,.36,1.24,.4,1.96,1.58,3.63,2.2,5.5,.13,.25,.25,.51,.36,.78,1.37,2.84,2.79,5.66,3.92,8.62,.26,.64,.45,1.3,.8,1.9,.49,.83,.97,1.67,1.4,2.53,.62,1.42,1.47,2.7,2.21,4.05,.11,.24,.21,.49,.29,.75,.14,.36,.27,.72,.43,1.07,.33,.69,.81,1.29,1.22,1.94,.41,.74,.76,1.51,1.25,2.2,.45,.64,.84,1.33,1.35,1.94,.69,.81,1.48,1.54,1.99,2.49,.45,.82,.69,1.73,1.05,2.59,.35,.84,.73,1.66,1.29,2.38,.42,.52,.91,.98,1.34,1.49,1.03,1.27,1.47,2.8,1.92,4.31,.12,.36,.25,.72,.44,1.06,.22,.3,.46,.59,.7,.88,.26,.3,.49,.61,.69,.96,.33,.86,1.02,1.77-.23,2.48-.44,0-.79-.19-1.13-.45-.52-.44-.97-.94-1.37-1.49-.55-.91-1.22-1.7-1.99-2.43-1.19-1.15-1.84-2.65-2.58-4.08-.42-.84-1.09-1.49-1.72-2.16-.37-.41-.69-.86-1-1.33-1.14-1.46-1.68-3.3-3.01-4.62-.3-.27-.57-.56-.81-.88-.29-.42-.51-.88-.74-1.33-.12-.21-.24-.43-.35-.65-.19-.32-.4-.63-.62-.94-.46-.63-.81-1.33-1.2-2-.22-.34-.45-.67-.71-.98-1.15-1.29-1.86-2.86-2.66-4.36-1.69-3.49-3.21-7.06-4.75-10.62-.64-1.5-1.07-3.08-1.9-4.5-1.03-1.69-1.37-3.61-1.89-5.48-.53-1.37-1.83-2.35-2.04-3.89-.12-.72-.26-1.43-.46-2.14-.2-1.74-.86-3.35-1.55-4.99,.23,2.16-.92,4.15-.59,6.3,.04,.3,.04,.61,.02,.91-.15,1.08-.39,2.14-.63,3.2-.52,1.86-.1,3.89-.96,5.69-1.05,2.38-1.13,4.95-1.45,7.47-.32,1.15-.76,2.27-1.12,3.41-.39,1.02-.69,2.05-.3,3.16,.08,.26,.13,.53,.18,.81,.08,.55,.09,1.1,.05,1.66-.18,1.23-.39,2.45-.49,3.69-.01,.29-.05,.58-.08,.86-.42,4.14-.57,8.3-1.14,12.42,0,.3,0,.61-.02,.91-.02,.76-.02,1.52-.03,2.29-.04,1.39-.27,2.76-.13,4.16-1.73,6.48-.16,13.1-.82,19.63-.42,4.5-.03,9-.23,13.5,0,.54,0,1.07,.02,1.61,.04,.53-.03,1.06-.02,1.59-.04,2.64,.89,5.2,.59,7.86,0,.21,0,.42-.04,.62-.3,1.26-.26,3.08-1.84,3.15-1.69,.07-1.53-1.89-2.03-3.05-.51-2.72-.83-5.46-1.41-8.17-.37-3.56,.13-7.15-.52-10.69-.01-.31,.01-.63,.07-.94,.21-.84,.46-1.69,.29-2.58-.14-.71-.35-1.41-.44-2.13-.06-.45-.08-.9-.1-1.35-.03-.31-.03-.62-.03-.92-.12-1.88,.37-3.74,.13-5.62-.18-1.66-.25-3.31,.05-4.96,.14-.65,.38-1.28,.37-1.95,.06-1.51,.04-3.02,0-4.53-.04-1,.04-2,.03-3.01,0-.65,0-1.29,.01-1.94,.02-.92,.04-1.85,.23-2.76,.09-.42,.21-.84,.32-1.25,.03-.27,.05-.55,.06-.83-.13-1.4,.05-2.77,.27-4.14,.34-1.07,.25-2.18,.25-3.28,.16-1,.2-2,.19-3.01,0-.59,.04-1.18,.14-1.77,.23-1,.51-2,.78-2.99,.18-.58,.18-1.17,.18-1.77,.79-3.86,.43-7.86,1.46-11.69,.43-3.54,1.24-7.01,1.92-10.51,.04-.32,.11-.63,.2-.93,.45-1.64,.66-3.33,1.11-4.97,.38-1.46,1.04-2.84,1.1-4.38,.5-3.02,1.29-5.97,1.99-7.71-.35,1.45-1.43,3.86-3.08,5.99-4.84,9.27-10.41,18.07-17.08,26.15-.67,.81-1.27,1.66-1.67,2.64-.25,.53-.57,1.02-1,1.42-.43,.36-.92,.66-1.34,1.04-1.06,.99-1.47,2.43-2.4,3.5-1.3,1.22-2.28,2.76-3.72,3.85-.89,.72-1.68,1.55-2.39,2.45-.34,.41-.77,.7-1.24,.95-.32,.21-.6,.46-.86,.75-.64,.72-1.23,1.51-2.35,1.45-.65-.18-.91-.65-1-1.27,0-.29,.03-.58,.12-.86,.11-.26,.25-.51,.42-.74,.08-.11,.18-.22,.26-.33,.17-.22,.35-.43,.53-.64,.68-.86,1.27-1.81,2.06-2.59,2.08-1.83,3.72-4.05,5.6-6.06,1.07-.63,1.81-1.56,2.37-2.66,.65-1.79,2.06-3.08,3.05-4.64,.27-.48,.54-.97,.83-1.45,.66-.87,.98-1.92,1.59-2.82,.23-.31,.49-.59,.75-.87,.23-.28,.46-.57,.66-.88,.25-.42,.54-.82,.86-1.18,.42-.46,.86-.89,1.27-1.36,.32-.39,.62-.79,.87-1.23,.12-.23,.25-.45,.39-.67,.12-.23,.26-.46,.41-.68,.15-.22,.33-.42,.53-.6,.5-.42,.97-.86,1.29-1.44,.31-.53,.49-1.12,.68-1.7,.2-.56,.4-1.12,.58-1.68,.08-.23,.19-.44,.31-.64,.13-.2,.27-.39,.42-.58,.07-.1,.14-.19,.21-.29,.12-.21,.25-.41,.38-.61,.25-.42,.54-.82,.85-1.2,.51-.59,.88-1.26,1.23-1.96,1.22-2.29,3.11-4.18,3.96-6.68,.29-.58,.56-1.17,.76-1.79,.08-.24,.2-.46,.33-.68,.13-.21,.28-.41,.43-.61,.07-.11,.14-.21,.2-.31,.12-.23,.24-.45,.36-.67,.1-.24,.22-.48,.35-.71,.76-1.62,1.78-3.09,2.73-4.59,.43-.69,.72-1.48,1.3-2.07,.17-.21,.35-.41,.53-.61,.08-.11,.16-.21,.24-.32,.64-1.78,2.25-3.17,2.12-5.26,.13-2.33,1.53-4.3,1.85-6.58,.13-.76,.35-1.49,.61-2.21,1.03-1.98,1.66-4.1,2.12-6.27,.21-.67,.46-1.33,.71-1.99,.31-.74,.7-1.44,.94-2.22,.06-.26,.15-.51,.23-.77,.07-.26,.17-.51,.26-.76,.37-1.18,1.06-2.21,1.48-3.37,.63-1.88,.97-3.86,1.98-5.6,.55-1.22,1.26-2.34,2.16-3.33,.09-.2,.23-.34,.43-.43,0,0-.06-.28-.06-.28,0,0,.27,.11,.27,.12-.39,.03-.47,.39-.67,.63-.77,.87-1.52,1.75-1.98,2.84-1.26,1.53-2.76,2.83-4.02,4.35-.18,.21-.38,.41-.59,.6-.1,.1-.2,.19-.3,.29-.6,.55-1.18,1.12-1.75,1.69-.68,.65-1.34,1.31-1.99,1.99-.69,.66-1.33,1.37-2.06,2-1.32,.77-2.53,1.65-3.39,2.95-1.09,1.46-2.66,2.43-3.85,3.77-1.12,1.22-2.53,2.08-3.77,3.16-.29,.31-.56,.62-.83,.94-2.65,2.85-6.5,4.35-8.68,7.73-.81,.49-1.76,.73-2.46,1.41-.79,.71-1.66,1.32-2.52,1.93-.81,.66-1.67,1.25-2.52,1.86-.3,.26-.59,.53-.88,.8-.69,.67-1.5,1.19-2.27,1.76-.56,.44-1.08,.95-1.75,1.25-.43,.16-.88,.22-1.33,.19-1-.16-1.76-.58-1.9-1.69,.35-1.28,1.37-1.96,2.38-2.64,2.61-1.3,4.88-3.12,7.2-4.84,.72-.85,1.46-1.68,2.25-2.47,.71-.67,1.36-1.42,2.23-1.9,.99-.43,2.08-.72,2.64-1.77,.56-1.32,1.41-2.4,2.66-3.14,.7-.43,1.38-.88,1.99-1.43,.98-.73,1.88-1.55,2.79-2.36,.59-.55,.97-1.27,1.51-1.87,.28-.3,.59-.57,.93-.8,1.06-.64,1.93-1.5,2.79-2.38,.5-.49,1.02-.96,1.59-1.37,1.78-1.29,2.96-3.15,4.4-4.76,.28-.49,.59-.97,.96-1.4,.48-.54,1.01-1.02,1.57-1.46,3.98-3.97,7.69-8.2,11.72-12.11,.31-.44,.64-.87,.97-1.3,.22-.32,.44-.65,.64-.99,.13-.23,.29-.44,.47-.63,.78-.68,1.55-1.38,1.89-2.42,.09-.26,.2-.51,.31-.76,1.3-2.53,2.37-5.15,3.64-7.69,.64-.92,1.47-1.71,1.9-2.78,.88-2.11,1.69-4.26,3.05-6.14,.82-.92,1.48-1.93,1.82-3.13,.33-.99,1.06-1.75,1.58-2.62,.17-.26,.39-.49,.6-.73,0,0,.21-.2,.21-.2,0,0-.2,.22-.2,.22-.28,.2-.46,.49-.66,.76-.83,1.49-2.27,2.25-3.66,3.07-.34,.25-.68,.48-1.04,.69-1.21,.7-2.62,.96-3.8,1.73-.23,.17-.48,.31-.73,.45-1.44,.67-3.03,.91-4.43,1.69-2.37,.87-4.61,2.15-7.18,2.44-.42,.12-.85,.19-1.29,.23-.83,.07-1.67,.06-2.46,.39-.66,.25-1.29,.56-1.92,.86-.68,.31-1.38,.55-2.14,.54-.78-.02-1.52-.25-2.23-.56-.55-.31-1.12-.62-.9-1.42,2.02-1.9,4.84-1.74,7.2-2.77,.42-.14,.84-.23,1.28-.28,.27-.05,.55-.08,.82-.11,.55-.06,1.04-.27,1.5-.58,2.38-1.92,5.34-2.52,8.1-3.58,.37-.17,.75-.33,1.14-.47,.37-.14,.76-.24,1.15-.32,.64-.12,1.2-.4,1.69-.84,.2-.18,.41-.34,.63-.5,1.9-1.16,3.91-2.1,5.93-3.02,1.87-1.06,3.77-2.08,5.25-3.69,.24-.33,.51-.64,.8-.93,.66-.65,1.31-1.3,1.74-2.14,.13-.25,.27-.48,.43-.71,1.39-1.99,2.27-4.25,3.42-6.36,.14-.25,.31-.48,.5-.7,.09-.11,.19-.21,.28-.32,.38-.41,.78-.8,1.12-1.24,.89-1.24,1.49-2.68,2.59-3.78,1.43-1.9,2.63-3.96,4.2-5.75,.38-.54,.84-1.01,1.31-1.48,.26-.27,.52-.53,.77-.82,.22-.3,.43-.61,.62-.93,.41-.66,.85-1.31,1.24-1.99,1.31-2.52,3.74-4.22,4.94-6.82,.38-.58,.85-1.08,1.33-1.57,.63-.61,1.22-1.27,1.86-1.82-.12-.11-.15,.08-.24,.08-.51,.18-1.01,.22-1.51,.26-.88,.03-1.72,.23-2.57,.47-.94,.2-1.89,.25-2.84,.25-3.07-.28-6.18,.22-9.23-.45-.46-.1-.93-.14-1.39-.19-.62-.04-1.23-.1-1.84-.19-.93-.22-1.85-.15-2.77,.07-2.62,.17-5.24,.37-7.85-.13-.54-.21-.94-.56-1.12-1.12-.2-1.94,1.05-2.5,2.62-2.77,3.49-.81,6.92,1.16,10.41,.21,2.05,.55,4-.2,5.98-.51,.28-.01,.56,.02,.84,.07,.53,.12,1.06,.25,1.6,.27,.94,.06,1.87-.07,2.79-.26,1.89-.41,3.79-.17,5.69-.09,1.03-.07,2.06,.39,3.09-.01,1.2-.28,2.11-1.03,3.04-1.77,1.55-1.35,2.91-2.92,4.56-4.15,.48-.45,.93-.94,1.29-1.49,.31-.44,.63-.86,1.2-.99,3.05-1.96,5.19-4.96,7.59-7.51,3.71-3.96,7.63-7.62,11.86-10.92,3.64-2.84,5.93-7.2,10.37-9.07,2.24-.95,3.82-2.7,5.67-4.16,5.3-4.2,10.36-8.81,16.53-11.8,2.11-1.02,3.74-3.04,6.32-3.11,.85,1.28,.6,2.17-.98,2.42-1.11,.17-1.97,.62-2.35,1.53,3.98-2.64,4-2.66,3.99-4.44,.93-1.29,1.97-2.2,3.7-2.53,1.34-.26,2.75-1.16,3.73-2.17,2.24-2.29,5.76-1.77,8.01-3.91,.07-.06,.2-.09,.3-.09,1.49,.02,3.43-.78,4.29,.75,1.1,1.94-.98,2.96-2.16,3.92-.73,.6-1.37,.94-1.65,1.98-.36,1.31-1.12,2.43-2.96,1.96-1.05-.27-1.99,.51-2.53,1.36-.5,.78-1.08,1.23-1.92,1.43l-.28,.11-.3-.04c-1.06,.34-1.96,1.01-3.13,1.23-1.06,.19-2.1,.8-2.85,1.74-2.83,3.58-6.85,5.08-11.05,6.24-1.1,.13-.75,1.26-1.24,1.8-.11,.15-.25,.22-.44,.21-.31,.09-.62,.2-.95,.25,0,0-.31,.03-.31,.03,0,0-.31-.03-.31-.02-.2,0-.39,.05-.56,.15,0,0-.24,.17-.24,.17-.16,.14-.33,.25-.5,.36-.17,.17-.2,.36-.08,.58-.02,.34-.11,.64-.37,.87-.61,.9-1.27,1.75-2.49,1.83-.65,.01-1.3-.4-1.94,.03Z" style="fill:#6d5153;"/></g></svg>